<svg xmlns="http://www.w3.org/2000/svg" xmlns:xlink="http://www.w3.org/1999/xlink" width="2000" zoomAndPan="magnify" viewBox="0 0 1500 1499.999933" height="2000" preserveAspectRatio="xMidYMid meet" version="1.0"><defs><g/><clipPath id="f6f9f7f5b4"><rect x="0" width="923" y="0" height="1500"/></clipPath><clipPath id="a8e3018b34"><rect x="0" width="922" y="0" height="1500"/></clipPath></defs><g transform="matrix(1, 0, 0, 1, 555, 0.000000000000112861)"><g clip-path="url(#f6f9f7f5b4)"><g fill="#7dd3fc" fill-opacity="1"><g transform="translate(23.988558, 1212.493045)"><g><path d="M 897.03125 -919.09375 L 897.03125 -893.125 C 877.988281 -884.476562 857.21875 -867.390625 834.71875 -841.859375 C 812.21875 -816.328125 791.878906 -777.597656 773.703125 -725.671875 L 510.171875 1.296875 C 501.515625 0.429688 492.210938 -0.210938 482.265625 -0.640625 C 472.316406 -1.078125 462.582031 -1.296875 453.0625 -1.296875 C 443.539062 -1.296875 433.800781 -1.078125 423.84375 -0.640625 C 413.894531 -0.210938 404.59375 0.429688 395.9375 1.296875 L 61.015625 -810.046875 C 48.898438 -841.203125 35.703125 -862.617188 21.421875 -874.296875 C 7.140625 -885.984375 -6.054688 -892.257812 -18.171875 -893.125 L -18.171875 -919.09375 C 10.390625 -918.226562 43.925781 -917.363281 82.4375 -916.5 C 120.945312 -915.632812 159.675781 -915.203125 198.625 -915.203125 C 241.03125 -915.203125 280.625 -915.632812 317.40625 -916.5 C 354.1875 -917.363281 383.828125 -918.226562 406.328125 -919.09375 L 406.328125 -893.125 C 378.628906 -892.257812 357.207031 -889.226562 342.0625 -884.03125 C 326.914062 -878.84375 318.257812 -868.675781 316.09375 -853.53125 C 313.9375 -838.382812 318.914062 -815.238281 331.03125 -784.09375 L 566 -196.015625 L 537.4375 -159.671875 L 701 -608.828125 C 726.101562 -678.929688 739.085938 -734.535156 739.953125 -775.640625 C 740.816406 -816.753906 731.726562 -846.394531 712.6875 -864.5625 C 693.644531 -882.738281 666.816406 -892.257812 632.203125 -893.125 L 632.203125 -919.09375 C 663.359375 -918.226562 691.703125 -917.363281 717.234375 -916.5 C 742.765625 -915.632812 769.804688 -915.203125 798.359375 -915.203125 C 816.535156 -915.203125 834.273438 -915.632812 851.578125 -916.5 C 868.890625 -917.363281 884.039062 -918.226562 897.03125 -919.09375 Z M 897.03125 -919.09375 "/></g></g></g></g></g><g transform="matrix(1, 0, 0, 1, 9, 0.000000000000112861)"><g clip-path="url(#a8e3018b34)"><g fill="#e2e8f0" fill-opacity="1"><g transform="translate(29.216917, 1212.493045)"><g><path d="M 497.1875 -920.390625 L 811.34375 -109.046875 C 824.320312 -78.753906 837.953125 -57.550781 852.234375 -45.4375 C 866.515625 -33.320312 879.28125 -26.832031 890.53125 -25.96875 L 890.53125 0 C 862.84375 -1.726562 829.738281 -2.804688 791.21875 -3.234375 C 752.707031 -3.671875 713.550781 -3.890625 673.75 -3.890625 C 632.207031 -3.890625 592.828125 -3.671875 555.609375 -3.234375 C 518.398438 -2.804688 488.539062 -1.726562 466.03125 0 L 466.03125 -25.96875 C 510.175781 -27.695312 538.304688 -35.265625 550.421875 -48.671875 C 562.535156 -62.085938 559.9375 -90.867188 542.625 -135.015625 L 327.140625 -724.375 L 353.09375 -763.3125 L 163.5625 -273.90625 C 143.65625 -221.976562 131.539062 -180.003906 127.21875 -147.984375 C 122.894531 -115.960938 125.054688 -91.296875 133.703125 -73.984375 C 142.359375 -56.679688 155.988281 -44.566406 174.59375 -37.640625 C 193.207031 -30.722656 215.492188 -26.832031 241.453125 -25.96875 L 241.453125 0 C 211.160156 -1.726562 183.25 -2.804688 157.71875 -3.234375 C 132.195312 -3.671875 104.722656 -3.890625 75.296875 -3.890625 C 57.984375 -3.890625 40.457031 -3.671875 22.71875 -3.234375 C 4.976562 -2.804688 -10.378906 -1.726562 -23.359375 0 L -23.359375 -25.96875 C -4.328125 -29.425781 14.921875 -41.539062 34.390625 -62.3125 C 53.867188 -83.082031 73.128906 -119 92.171875 -170.0625 L 384.25 -920.390625 C 401.5625 -918.660156 420.382812 -917.796875 440.71875 -917.796875 C 461.0625 -917.796875 479.882812 -918.660156 497.1875 -920.390625 Z M 564.703125 -373.875 L 564.703125 -347.90625 L 177.84375 -347.90625 L 190.828125 -373.875 Z M 564.703125 -373.875 "/></g></g></g></g></g></svg>
